<svg height='100px' width='100px'  fill="#ffffff" xmlns="http://www.w3.org/2000/svg" data-name="Layer 1" viewBox="0 0 84.12 96" x="0px" y="0px"><title>25</title><path d="M47.8,30.21,48,31.58S48.12,33,49.3,32.8c.7-.1,1-.52.9-1.52s-.13-2.78-1.15-2.82h0a2.86,2.86,0,0,0-1.43.46,1.18,1.18,0,0,1-1.37,0S46.9,30.44,47.8,30.21Z" transform="translate(-7.94 -2)"></path><path d="M37.87,30.12s.68,1.54,1.61,1.22l.16,1.15s.1,1.27,1.21,1.12c.64-.09.92-.48.83-1.4s-.12-2.47-1-2.58v0a2.84,2.84,0,0,0-1.43.46A1.18,1.18,0,0,1,37.87,30.12Z" transform="translate(-7.94 -2)"></path><path d="M91.42,93.88a16.69,16.69,0,0,1-.54-2.53c0-.17,0-.34,0-.52,0-1.37.05-3.09-1.27-4a7.84,7.84,0,0,0-1.12-.6A5.52,5.52,0,0,1,85.62,83c-2.12-6-5.26-8.14-7.13-9.4l-.62-.43c-1.35-1-3.21-5.53-3.82-7.2a.56.56,0,0,0,0-.07c.49-1,1-2,1.29-2.9a12,12,0,0,0,.49-5.25,16.86,16.86,0,0,0,6,1.41,4.81,4.81,0,0,0,4.38-2.08c2.36-3.77-2.46-8.47-4.15-9.94l.06-.11a2.4,2.4,0,0,0-.09-1.7,6.86,6.86,0,0,1,1.37-1c.87-.55,1.77-1.13,1.91-2a1.94,1.94,0,0,0-.52-1.54c-1.17-1.42-2.33-.79-3.36-.23a6.78,6.78,0,0,1-2.06.82c6.6-9.59,6.92-28,5.15-35.66-.46-2-1-3.08-1.76-3.42C80.27,1.11,76.19,3.83,71.88,6.7c-1.62,1.08-3.15,2.1-4.55,2.88A18.29,18.29,0,0,0,61,15.15a11.64,11.64,0,0,0-1.33-1.74,4.34,4.34,0,0,0,2.62-1.87,2.06,2.06,0,0,0,.15-1.65.6.6,0,0,0-.66-.37,2.46,2.46,0,0,1-3-1.21c-.9-1.15-2.14-2.73-5.95-3.29a7.12,7.12,0,0,0-5.55,1.19,7.94,7.94,0,0,0-2.74,4.64,20.72,20.72,0,0,0-4.88,3,14.54,14.54,0,0,0-3.09,1.81c-1.42-.77-7-3.62-12.31-4.15A2,2,0,0,0,22,12.87c-1.84,4.94,7.11,23.54,13.49,28l6.8,4.78c-1,.82-2.08,1.74-3.4,2.75a28.45,28.45,0,0,0-3-2.56c-1.79-1.39-3.65-2.83-4.09-4.35a15.14,15.14,0,0,1-.34-1.59c-.18-1-.33-1.88-1.07-2.32s-1.57-.32-3.15.22a4.88,4.88,0,0,0-.85.38L16.31,30.79l2-.35a.6.6,0,0,0,.3-1l-2.26-2.07.43-3a.6.6,0,0,0-.89-.6L13.23,25.2l-2.75-1.35a.6.6,0,0,0-.85.66l.61,3-2.13,2.2a.6.6,0,0,0,.36,1l3,.35L13,33.79a.6.6,0,0,0,.53.32h0a.6.6,0,0,0,.53-.35l1.08-2.37L25.49,39a2.6,2.6,0,0,0-.54,1.55,4.85,4.85,0,0,0,2.26,3.86,23.16,23.16,0,0,1,1.91,2.2c3.83,4.67,7.79,9.17,10.75,9.17a2.63,2.63,0,0,0,.86-.14.6.6,0,0,0,.18-.1l3.74-3.08a35.24,35.24,0,0,0-2.83,12C41.61,70.23,44,72,45,72.46a3.65,3.65,0,0,0,1.56.35,3.12,3.12,0,0,0,2.08-.75c1.52-1.35,7.79-7.29,9.13-8.56l.6.13a.58.58,0,0,0,.17.32L63,68.13a6,6,0,0,0,1.28,5.72,92.22,92.22,0,0,0,11,9.84C76,84.09,77,87,77.83,89c1.24,3.28,2,5.32,2.92,6a2.22,2.22,0,0,0,1.32.52,1.34,1.34,0,0,0,.76-.23c.85-.58,1-2.12.44-4.12a3.34,3.34,0,0,1,.15-2.09c1.19,1.5,5.61,7,7,8.46a1.25,1.25,0,0,0,.84.45.7.7,0,0,0,.35-.1C92.32,97.52,92.12,96.57,91.42,93.88ZM73,56A16.55,16.55,0,0,1,69.7,57.8c-1.45.64-2.5,1.11-2.93,3.12a3,3,0,0,1-1.6,2l0,0a6.09,6.09,0,0,1-4.94,0,11.09,11.09,0,0,0-2.32-.65.58.58,0,0,0-.33-.06A17.45,17.45,0,0,0,54,62.1c1-2,1.48-5.66,1.65-7.49,1.15.87,1.37,1.44,1.33,1.78a.6.6,0,0,0,.53.66h.07a.6.6,0,0,0,.59-.53c.12-1.11-.75-2.25-2.76-3.53h0a36,36,0,0,0-4.86-2.46,4.28,4.28,0,0,1-2.12-2.59,16.34,16.34,0,0,1-.83-5.45c.24,0,.47-.05.71-.1A15,15,0,0,0,49.89,42c.36,1.17,1.35,3.51,3.66,3.69h0a.6.6,0,0,0,.58-.46l1.51-6.52a10.57,10.57,0,0,0,1.13-1.24,11.83,11.83,0,0,1,4.31-.7L62,42.11l0,.07c0,.15,1.07,3.66,3.18,5.46,1.87,1.59,9.09,2.06,11.35,2.16a6.52,6.52,0,0,1-2,4.83.59.59,0,0,0-.35.34A12.78,12.78,0,0,1,73,56ZM63.47,66.9l-2.69-2.5a7.92,7.92,0,0,0,2,.28,6.77,6.77,0,0,0,1.55-.18Zm-24-39.52a8.94,8.94,0,0,1-1.83-3.48c1.18,1.42,3.35,3.71,5.26,3.92a17.85,17.85,0,0,0,7.66-1.09l0,0a12,12,0,0,0,3.45-2c.86,1.12,2.77,4.12.85,6.57a.6.6,0,0,0,.65.94A6.3,6.3,0,0,0,59.36,29c.7-.18,2.21-.72,2.21-2a.6.6,0,0,0-1.2,0c0,.27-.31.5-.67.66a4.82,4.82,0,0,0-.07-1.24,23.49,23.49,0,0,1,2.64-2.44,6.9,6.9,0,0,1-3,8l-.33.11a.64.64,0,0,0-.17-.08c-.61-.19-.77,0-2.19,3.48-.89,2.18-4.18,4.93-8.55,5.74A9.73,9.73,0,0,1,40.6,39.3a5.63,5.63,0,0,1-2.34-4.05A23.49,23.49,0,0,0,36.56,28a10.71,10.71,0,0,0,2.39.37h0a.6.6,0,0,0,.46-1ZM54.18,39.92l-1,4.47c-1.26-.42-1.88-2-2.12-2.79A15.1,15.1,0,0,0,54.18,39.92Zm31,16.56c-2,3.15-8.18.54-9.56-.09-.07-.38-.13-.7-.18-.93a7.9,7.9,0,0,0,2.3-6.23.6.6,0,0,0-.58-.6c-2.6-.09-9.69-.61-11.2-1.9a11.76,11.76,0,0,1-2.78-4.82c4.3,1.1,13.5,3.51,14.69,4.11a6.19,6.19,0,0,1,1.38,1,2.46,2.46,0,0,0,1.58.83h.13C82,48.74,87.15,53.3,85.16,56.49ZM82,41.59c1.13-.61,1.37-.67,1.87-.06a.9.9,0,0,1,.26.59c-.06.37-.76.81-1.38,1.21A5.88,5.88,0,0,0,80.8,45a.6.6,0,0,0,0,.58c.21.42.29.95.17,1.07s-.4,0-.92-.5A7.31,7.31,0,0,0,78.39,45C76.85,44.18,65.17,41.2,63,40.63l-.6-3.76a9,9,0,0,1,1.65.41c1.37.49,3.08,1.25,4.88,2.06,3.39,1.52,6.9,3.09,9.19,3.28h.05A6.64,6.64,0,0,0,82,41.59Zm-14.06-31C69.36,9.82,71,8.74,72.54,7.7c3.67-2.45,7.83-5.22,9.68-4.34,0,0,.56.29,1.1,2.62,1.73,7.42,1.32,26.49-5.48,35.41-2.12-.29-5.48-1.8-8.47-3.14-1.82-.82-3.55-1.59-5-2.09a10.45,10.45,0,0,0-2.52-.54.58.58,0,0,0-.34-.06l-.06,0a12.76,12.76,0,0,0-3.75.36h0c.57-1.41.9-2.15,1.09-2.54l.94-.31L59.9,33c5.53-3.58,3.58-9.34,3.26-10.18a16.74,16.74,0,0,0-1.52-6.46A16.43,16.43,0,0,1,67.91,10.63ZM48,7.16a6,6,0,0,1,4.65-1C56,6.69,57,7.94,57.82,9a3.48,3.48,0,0,0,3.47,1.74,1.14,1.14,0,0,1-.1.23c-.24.42-.88,1-2.54,1.44a12.64,12.64,0,0,0-5.4-2.64,13.35,13.35,0,0,0-7.36.51A6.38,6.38,0,0,1,48,7.16Zm-7.82,7.75a.6.6,0,0,0,.19-.11C40.42,14.75,46.51,9.47,53,11a11.37,11.37,0,0,1,5.16,2.58l0,0c2.71,2.46,3.6,6,3.78,9.08a23.64,23.64,0,0,0-3.42,3.12.6.6,0,0,0-.13.54,3.55,3.55,0,0,1-1.71,4c.71-2.44-.62-5-1.8-6.46a9.34,9.34,0,0,0,.95-1.21.6.6,0,0,0-1-.65,9.59,9.59,0,0,1-4.68,3.6c-3.56,0-5.9-4.35-5.92-4.4a.6.6,0,0,0-1.06.56,11,11,0,0,0,4.66,4.54,16.52,16.52,0,0,1-4.84.35c-1.79-.2-4.41-3.32-5.26-4.51a.6.6,0,0,0-1,0c-.92,1.5.12,3.59,1,4.88-3.58-.61-3.84-2.86-3.86-3a7.71,7.71,0,0,1,3.05-7.19l.12-.1A12.66,12.66,0,0,1,40.17,14.91Zm-4,25c-6.45-4.54-14.59-22.51-13.05-26.64a.81.81,0,0,1,1-.6c4.63.46,9.61,2.85,11.44,3.8a8.63,8.63,0,0,0-2.91,7.69A4.34,4.34,0,0,0,35,27.37a23.44,23.44,0,0,1,2.07,7.94,6.8,6.8,0,0,0,2.79,4.93,11.12,11.12,0,0,0,5.89,2.27c-.54.55-1.36,1.36-2.5,2.37ZM13.44,32.15l-1-1.91a.6.6,0,0,0-.46-.31l-2.15-.25,1.51-1.56a.6.6,0,0,0,.16-.53L11,25.46l1.95,1a.59.59,0,0,0,.56,0l1.89-1.07-.3,2.15a.6.6,0,0,0,.19.52l1.6,1.47-2.14.38a.6.6,0,0,0-.44.34Zm26.81,22.4c-2.53.67-7.7-5.64-10.2-8.69-1.47-1.8-2-2.37-2.35-2.53a3.77,3.77,0,0,1-1.55-2.74,1.41,1.41,0,0,1,.32-.87l1.85,1.36a.6.6,0,1,0,.71-1L27.53,39l.14-.05c1.41-.48,1.95-.44,2.15-.32s.37.78.5,1.49a16.07,16.07,0,0,0,.37,1.72c.54,1.9,2.56,3.46,4.5,5a23.39,23.39,0,0,1,3.22,2.8l.08.06.09.07.12,0,.1,0H39l.11-.05.08,0a66.61,66.61,0,0,0,7.2-6.18,16.09,16.09,0,0,0,.89,4.83c0,.11.09.21.13.32a.59.59,0,0,0-.18.09Zm7.58,16.61a2.15,2.15,0,0,1-2.33.21c-.81-.38-2.67-1.81-2.47-6.83a35.36,35.36,0,0,1,3.79-13.85l1.17-1a4.68,4.68,0,0,0,2.09,1.89,37.09,37.09,0,0,1,4.45,2.22c-.22,3-1,7.63-2.15,8.5a.6.6,0,0,0,.45,1.07,16.69,16.69,0,0,1,3.39-.11C54.1,65.3,49.13,70,47.83,71.16ZM76,82.69a90.27,90.27,0,0,1-10.8-9.64,4.78,4.78,0,0,1-.93-4.9h0l1.59-4.23a4.17,4.17,0,0,0,2.07-2.76c.3-1.41.87-1.67,2.25-2.27a17.59,17.59,0,0,0,3.5-2c.25-.18.48-.36.7-.54a12.65,12.65,0,0,1-.21,6.22,69.16,69.16,0,0,1-4.12,8.09.6.6,0,0,0,.16.79c.06,0,6,4.44,8.74,10.66l0,.08a9.45,9.45,0,0,0,1.32,1.51c.2,1.82,0,3.18-.69,3.94a1.89,1.89,0,0,1-.83.57C77.65,85.17,76.85,83.24,76,82.69Zm6.59,5.24a5.23,5.23,0,0,0-.47,3.58c.51,1.78.24,2.66,0,2.81s-.34,0-.69-.26c-.58-.44-1.46-2.65-2.23-4.69a3.06,3.06,0,0,0,1.29-.87,5.3,5.3,0,0,0,1.08-3.64l.75.58C83.28,86.15,83.11,86.68,82.6,87.93Zm1.32-.08a2.57,2.57,0,0,0-.85-3.36,14.09,14.09,0,0,1-3-2.86,30.44,30.44,0,0,0-8.68-10.77c.39-.67,1.15-2,1.93-3.5.73,1.85,2.37,5.71,3.88,6.81l.65.45c1.75,1.18,4.68,3.16,6.67,8.81A6.86,6.86,0,0,0,87,86.8a15.58,15.58,0,0,1,.13,5c-1.62-2-3.06-3.82-3.09-3.85A.59.59,0,0,0,83.92,87.85Zm4.29,5.26a20.81,20.81,0,0,0,.19-5.57,5.74,5.74,0,0,1,.56.32c.78.52.76,1.76.74,3,0,.18,0,.36,0,.54a15.23,15.23,0,0,0,.58,2.83c.14.55.34,1.3.46,1.92C90.07,95.36,89.15,94.26,88.21,93.11Z" transform="translate(-7.94 -2)"></path></svg>