<svg height='100px' width='100px'  fill="#ffffff" xmlns="http://www.w3.org/2000/svg" viewBox="0 0 96 96" x="0px" y="0px"><title>Artboard 27</title><path d="M81.2885,16.7575c-6.4921-12.9938-20.0972-7.4861-29.097-3.8417-3.289,1.334-6.4061,2.5957-8.3709,2.7246-1.6758-.7461-3.3008-1.5293-4.871-2.2871-9.3162-4.49-18.9645-9.1424-25.2377,3.4042-4.4609,8.9236-.2383,28.9369,7.7888,37.6964.0821,22.0288,3.4453,33.1966,10,33.1966,5.2226,0,6.5819-6.5487,8.0155-13.48,1.7616-8.5018,3.3632-14.5192,7.9842-14.5192s6.2225,6.0174,7.9842,14.5192c1.4374,6.9315,2.7929,13.48,8.0154,13.48,6.578,0,9.9412-11.2361,10-33.3977C80.8353,42.98,86.0071,26.1987,81.2885,16.7575ZM69.8356,52.5419A2.0021,2.0021,0,0,0,69.5,53.6512c0,19.6949-3.02,29.9994-6,29.9994-1.9687,0-3.1484-5.7069-4.0976-10.2908C57.77,65.4693,55.7343,55.6512,47.5,55.6512S37.2309,65.4693,35.5981,73.36c-.9492,4.5839-2.1289,10.2908-4.0976,10.2908-2.98,0-6-10.3045-6-29.9994a1.9986,1.9986,0,0,0-.586-1.414C17.3524,44.6729,13.86,25.4077,17.29,18.5465c4.32-8.6345,9.5076-6.6092,19.9214-1.59,6.5116,3.1386,13.8864,6.6952,22.2886,6.6952a2,2,0,0,0,0-4A31.2134,31.2134,0,0,1,50.0626,18.06c1.1484-.4316,2.3632-.9238,3.6288-1.4355,10.8631-4.4022,19.5308-7.0565,24.019,1.9218C81.265,25.6558,77.8042,40.589,69.8356,52.5419Z"></path></svg>